<mxfile host="app.diagrams.net" agent="Mozilla/5.0 (Windows NT 10.0; Win64; x64; rv:140.0) Gecko/20100101 Firefox/140.0" version="28.0.6">
  <diagram name="Page-1" id="2YBvvXClWsGukQMizWep">
    <mxGraphModel dx="1033" dy="636" grid="1" gridSize="10" guides="1" tooltips="1" connect="1" arrows="1" fold="1" page="1" pageScale="1" pageWidth="827" pageHeight="1169" math="0" shadow="0">
      <root>
        <mxCell id="0" />
        <mxCell id="1" parent="0" />
        <mxCell id="ATCBDJYlgSvFNA7paExq-6" value="" style="rounded=0;whiteSpace=wrap;html=1;" parent="1" vertex="1">
          <mxGeometry x="34" y="480" width="120" height="105" as="geometry" />
        </mxCell>
        <mxCell id="es4zuGhlTcDtU3RGPdiZ-29" value="&lt;div style=&quot;font-size: 10px;&quot; align=&quot;left&quot;&gt;1) generate a AES securekey&lt;/div&gt;&lt;div style=&quot;font-size: 10px;&quot; align=&quot;left&quot;&gt;2) save in EP table/config file &lt;br style=&quot;font-size: 10px;&quot;&gt;&lt;/div&gt;&lt;div style=&quot;font-size: 10px;&quot; align=&quot;left&quot;&gt;3) return the securekey&lt;/div&gt;" style="text;html=1;align=left;verticalAlign=middle;resizable=0;points=[];autosize=1;fontSize=10;fillColor=#f5f5f5;fontColor=#333333;strokeColor=#666666;" parent="1" vertex="1">
          <mxGeometry x="592" y="115" width="160" height="50" as="geometry" />
        </mxCell>
        <mxCell id="7PrB7ct33ou-kt_ilz-a-96" value="&lt;div&gt;return an Access Token includes StaffNo&lt;br&gt;&lt;/div&gt;&lt;div&gt;&amp;nbsp;(Signature Credentials &amp;amp; Validation)&lt;/div&gt;&lt;div&gt;and RSA public key&amp;nbsp;&lt;/div&gt;&lt;div&gt;and AES IV&lt;br&gt;&lt;/div&gt;" style="rounded=0;whiteSpace=wrap;html=1;fillColor=#ffe6cc;strokeColor=#d79b00;fontSize=10;" parent="1" vertex="1">
          <mxGeometry x="305.5" y="380" width="217" height="50" as="geometry" />
        </mxCell>
        <mxCell id="7PrB7ct33ou-kt_ilz-a-60" value="return a (Project Securekey} for Project (Mobile App)" style="text;html=1;align=center;verticalAlign=middle;resizable=0;points=[];autosize=1;strokeColor=#82b366;fillColor=#d5e8d4;fontSize=10;" parent="1" vertex="1">
          <mxGeometry x="279" y="145" width="270" height="30" as="geometry" />
        </mxCell>
        <mxCell id="aM9ryv3xv72pqoxQDRHE-1" value="Mobile App" style="shape=umlLifeline;perimeter=lifelinePerimeter;whiteSpace=wrap;html=1;container=0;dropTarget=0;collapsible=0;recursiveResize=0;outlineConnect=0;portConstraint=eastwest;newEdgeStyle={&quot;edgeStyle&quot;:&quot;elbowEdgeStyle&quot;,&quot;elbow&quot;:&quot;vertical&quot;,&quot;curved&quot;:0,&quot;rounded&quot;:0};fontSize=10;" parent="1" vertex="1">
          <mxGeometry x="190" y="10" width="100" height="1115" as="geometry" />
        </mxCell>
        <mxCell id="aM9ryv3xv72pqoxQDRHE-2" value="" style="html=1;points=[];perimeter=orthogonalPerimeter;outlineConnect=0;targetShapes=umlLifeline;portConstraint=eastwest;newEdgeStyle={&quot;edgeStyle&quot;:&quot;elbowEdgeStyle&quot;,&quot;elbow&quot;:&quot;vertical&quot;,&quot;curved&quot;:0,&quot;rounded&quot;:0};fontSize=10;" parent="aM9ryv3xv72pqoxQDRHE-1" vertex="1">
          <mxGeometry x="45" y="60" width="10" height="160" as="geometry" />
        </mxCell>
        <mxCell id="7PrB7ct33ou-kt_ilz-a-32" value="" style="html=1;points=[[0,0,0,0,5],[0,1,0,0,-5],[1,0,0,0,5],[1,1,0,0,-5]];perimeter=orthogonalPerimeter;outlineConnect=0;targetShapes=umlLifeline;portConstraint=eastwest;newEdgeStyle={&quot;curved&quot;:0,&quot;rounded&quot;:0};fontSize=10;" parent="aM9ryv3xv72pqoxQDRHE-1" vertex="1">
          <mxGeometry x="45" y="290" width="10" height="320" as="geometry" />
        </mxCell>
        <mxCell id="aM9ryv3xv72pqoxQDRHE-5" value="EP API" style="shape=umlLifeline;perimeter=lifelinePerimeter;whiteSpace=wrap;html=1;container=0;dropTarget=0;collapsible=0;recursiveResize=0;outlineConnect=0;portConstraint=eastwest;newEdgeStyle={&quot;edgeStyle&quot;:&quot;elbowEdgeStyle&quot;,&quot;elbow&quot;:&quot;vertical&quot;,&quot;curved&quot;:0,&quot;rounded&quot;:0};fontSize=10;" parent="1" vertex="1">
          <mxGeometry x="530" y="10" width="100" height="1125" as="geometry" />
        </mxCell>
        <mxCell id="aM9ryv3xv72pqoxQDRHE-6" value="" style="html=1;points=[];perimeter=orthogonalPerimeter;outlineConnect=0;targetShapes=umlLifeline;portConstraint=eastwest;newEdgeStyle={&quot;edgeStyle&quot;:&quot;elbowEdgeStyle&quot;,&quot;elbow&quot;:&quot;vertical&quot;,&quot;curved&quot;:0,&quot;rounded&quot;:0};fontSize=10;" parent="aM9ryv3xv72pqoxQDRHE-5" vertex="1">
          <mxGeometry x="45" y="60" width="10" height="160" as="geometry" />
        </mxCell>
        <mxCell id="7PrB7ct33ou-kt_ilz-a-3" value="" style="edgeStyle=orthogonalEdgeStyle;rounded=0;orthogonalLoop=1;jettySize=auto;html=1;elbow=vertical;curved=1;fontSize=10;" parent="aM9ryv3xv72pqoxQDRHE-5" source="aM9ryv3xv72pqoxQDRHE-6" target="aM9ryv3xv72pqoxQDRHE-6" edge="1">
          <mxGeometry relative="1" as="geometry">
            <mxPoint x="135" y="115" as="targetPoint" />
            <Array as="points">
              <mxPoint x="240" y="90" />
              <mxPoint x="240" y="170" />
            </Array>
          </mxGeometry>
        </mxCell>
        <mxCell id="7PrB7ct33ou-kt_ilz-a-35" value="" style="html=1;points=[[0,0,0,0,5],[0,1,0,0,-5],[1,0,0,0,5],[1,1,0,0,-5]];perimeter=orthogonalPerimeter;outlineConnect=0;targetShapes=umlLifeline;portConstraint=eastwest;newEdgeStyle={&quot;curved&quot;:0,&quot;rounded&quot;:0};fontSize=10;" parent="aM9ryv3xv72pqoxQDRHE-5" vertex="1">
          <mxGeometry x="45" y="290" width="10" height="320" as="geometry" />
        </mxCell>
        <mxCell id="aM9ryv3xv72pqoxQDRHE-7" value="Request a secure key for communication between two projects&lt;br style=&quot;font-size: 10px;&quot;&gt;(via phone/email)." style="html=1;verticalAlign=bottom;endArrow=block;edgeStyle=elbowEdgeStyle;elbow=vertical;curved=0;rounded=0;dashed=1;dashPattern=8 8;fontSize=10;" parent="1" edge="1">
          <mxGeometry x="0.2941" relative="1" as="geometry">
            <mxPoint x="110" y="100" as="sourcePoint" />
            <Array as="points" />
            <mxPoint x="560" y="100" as="targetPoint" />
            <mxPoint as="offset" />
          </mxGeometry>
        </mxCell>
        <mxCell id="aM9ryv3xv72pqoxQDRHE-8" value="" style="html=1;verticalAlign=bottom;endArrow=open;dashed=1;endSize=8;elbow=horizontal;rounded=0;fontSize=10;exitX=1.003;exitY=-0.06;exitDx=0;exitDy=0;exitPerimeter=0;" parent="1" source="7PrB7ct33ou-kt_ilz-a-17" edge="1">
          <mxGeometry relative="1" as="geometry">
            <mxPoint x="250" y="180" as="targetPoint" />
            <mxPoint x="630" y="180" as="sourcePoint" />
          </mxGeometry>
        </mxCell>
        <mxCell id="7PrB7ct33ou-kt_ilz-a-12" value="" style="rounded=0;orthogonalLoop=1;jettySize=auto;html=1;elbow=vertical;entryX=1;entryY=0.5;entryDx=0;entryDy=0;entryPerimeter=0;fontSize=10;" parent="1" target="7PrB7ct33ou-kt_ilz-a-14" edge="1">
          <mxGeometry relative="1" as="geometry">
            <mxPoint x="235" y="180" as="sourcePoint" />
            <mxPoint x="200" y="180" as="targetPoint" />
          </mxGeometry>
        </mxCell>
        <mxCell id="es4zuGhlTcDtU3RGPdiZ-38" value="" style="rounded=0;orthogonalLoop=1;jettySize=auto;html=1;exitX=0;exitY=0.5;exitDx=0;exitDy=0;exitPerimeter=0;strokeWidth=2;fillColor=#d5e8d4;strokeColor=#82b366;dashed=1;entryX=0;entryY=0.5;entryDx=0;entryDy=0;edgeStyle=orthogonalEdgeStyle;" parent="1" source="7PrB7ct33ou-kt_ilz-a-14" target="es4zuGhlTcDtU3RGPdiZ-11" edge="1">
          <mxGeometry relative="1" as="geometry">
            <mxPoint x="40" y="800" as="targetPoint" />
            <Array as="points">
              <mxPoint x="10" y="180" />
              <mxPoint x="10" y="530" />
            </Array>
          </mxGeometry>
        </mxCell>
        <mxCell id="7PrB7ct33ou-kt_ilz-a-14" value="&lt;div style=&quot;font-size: 10px;&quot;&gt;save in table /&amp;nbsp;&lt;/div&gt;&lt;div style=&quot;font-size: 10px;&quot;&gt;config file&lt;br style=&quot;font-size: 10px;&quot;&gt;&lt;/div&gt;" style="shape=cylinder3;whiteSpace=wrap;html=1;boundedLbl=1;backgroundOutline=1;size=15;fontSize=10;" parent="1" vertex="1">
          <mxGeometry x="130" y="140" width="60" height="80" as="geometry" />
        </mxCell>
        <mxCell id="7PrB7ct33ou-kt_ilz-a-16" value="Request a secure Key&lt;br style=&quot;font-size: 10px;&quot;&gt;(one time request)" style="text;html=1;align=center;verticalAlign=middle;resizable=0;points=[];autosize=1;strokeColor=none;fillColor=none;fontSize=10;fontStyle=1;fontColor=#FF3333;" parent="1" vertex="1">
          <mxGeometry x="80" y="65" width="120" height="40" as="geometry" />
        </mxCell>
        <mxCell id="7PrB7ct33ou-kt_ilz-a-17" value="&lt;b style=&quot;font-size: 10px;&quot;&gt;e.g.:&amp;nbsp;&lt;/b&gt;&lt;br style=&quot;font-size: 10px;&quot;&gt;&lt;font style=&quot;font-size: 10px;&quot;&gt;FThU8LwKAnatEWh5rM43EXiPfKktRSBd4xdE6yg0D/Y=&lt;/font&gt;&lt;div style=&quot;font-size: 10px;&quot;&gt;&lt;br style=&quot;font-size: 10px;&quot;&gt;&lt;/div&gt;" style="text;html=1;align=center;verticalAlign=middle;resizable=0;points=[];autosize=1;strokeColor=none;fillColor=none;fontSize=10;" parent="1" vertex="1">
          <mxGeometry x="269" y="185" width="290" height="50" as="geometry" />
        </mxCell>
        <mxCell id="7PrB7ct33ou-kt_ilz-a-18" value="&lt;div style=&quot;font-size: 10px;&quot;&gt;save in table /&amp;nbsp;&lt;/div&gt;&lt;div style=&quot;font-size: 10px;&quot;&gt;config file&lt;br style=&quot;font-size: 10px;&quot;&gt;&lt;/div&gt;" style="shape=cylinder3;whiteSpace=wrap;html=1;boundedLbl=1;backgroundOutline=1;size=15;fontSize=10;" parent="1" vertex="1">
          <mxGeometry x="742" y="175" width="60" height="80" as="geometry" />
        </mxCell>
        <mxCell id="7PrB7ct33ou-kt_ilz-a-19" value="" style="endArrow=classic;html=1;rounded=0;entryX=0.5;entryY=0;entryDx=0;entryDy=0;entryPerimeter=0;fontSize=10;" parent="1" target="7PrB7ct33ou-kt_ilz-a-18" edge="1">
          <mxGeometry width="50" height="50" relative="1" as="geometry">
            <mxPoint x="742" y="150" as="sourcePoint" />
            <mxPoint x="390" y="270" as="targetPoint" />
          </mxGeometry>
        </mxCell>
        <mxCell id="7PrB7ct33ou-kt_ilz-a-34" value="User Login" style="text;html=1;align=center;verticalAlign=middle;resizable=0;points=[];autosize=1;strokeColor=none;fillColor=none;fontSize=10;fontStyle=1;fontColor=#3333FF;" parent="1" vertex="1">
          <mxGeometry x="109.25" y="300" width="70" height="30" as="geometry" />
        </mxCell>
        <mxCell id="7PrB7ct33ou-kt_ilz-a-37" value="" style="endArrow=classic;html=1;rounded=0;dashed=1;dashPattern=12 12;fontSize=10;" parent="1" edge="1">
          <mxGeometry width="50" height="50" relative="1" as="geometry">
            <mxPoint x="90" y="329" as="sourcePoint" />
            <mxPoint x="230" y="329" as="targetPoint" />
          </mxGeometry>
        </mxCell>
        <mxCell id="7PrB7ct33ou-kt_ilz-a-47" value="" style="endArrow=classic;html=1;rounded=0;dashed=1;dashPattern=12 12;edgeStyle=elbowEdgeStyle;fontSize=10;" parent="1" edge="1">
          <mxGeometry width="50" height="50" relative="1" as="geometry">
            <mxPoint x="259.5" y="330" as="sourcePoint" />
            <mxPoint x="567.5" y="330" as="targetPoint" />
          </mxGeometry>
        </mxCell>
        <mxCell id="7PrB7ct33ou-kt_ilz-a-48" value="url: ...\api\login?staffno=654321" style="text;html=1;align=center;verticalAlign=middle;resizable=0;points=[];autosize=1;strokeColor=none;fillColor=none;fontStyle=1;fontSize=10;" parent="1" vertex="1">
          <mxGeometry x="269" y="300" width="170" height="30" as="geometry" />
        </mxCell>
        <mxCell id="7PrB7ct33ou-kt_ilz-a-93" value="" style="edgeStyle=orthogonalEdgeStyle;rounded=0;orthogonalLoop=1;jettySize=auto;html=1;exitX=0.989;exitY=0.978;exitDx=0;exitDy=0;exitPerimeter=0;dashed=1;entryX=1;entryY=0.5;entryDx=0;entryDy=0;" parent="1" source="7PrB7ct33ou-kt_ilz-a-52" target="7PrB7ct33ou-kt_ilz-a-87" edge="1">
          <mxGeometry relative="1" as="geometry" />
        </mxCell>
        <mxCell id="7PrB7ct33ou-kt_ilz-a-95" value="" style="edgeStyle=orthogonalEdgeStyle;rounded=0;orthogonalLoop=1;jettySize=auto;html=1;dashed=1;exitX=0.989;exitY=1;exitDx=0;exitDy=0;exitPerimeter=0;entryX=1;entryY=0.5;entryDx=0;entryDy=0;" parent="1" source="7PrB7ct33ou-kt_ilz-a-52" target="es4zuGhlTcDtU3RGPdiZ-21" edge="1">
          <mxGeometry relative="1" as="geometry">
            <Array as="points">
              <mxPoint x="798" y="575" />
            </Array>
            <mxPoint x="742" y="585" as="targetPoint" />
          </mxGeometry>
        </mxCell>
        <mxCell id="7PrB7ct33ou-kt_ilz-a-52" value="&lt;div style=&quot;font-size: 10px;&quot;&gt;&lt;font style=&quot;font-size: 10px;&quot;&gt;1) staffno=654321 and validate&lt;br style=&quot;font-size: 10px;&quot;&gt;&lt;/font&gt;&lt;/div&gt;&lt;div style=&quot;font-size: 10px;&quot;&gt;&lt;font style=&quot;font-size: 10px;&quot;&gt;2) generate RSA&lt;font style=&quot;font-size: 10px;&quot;&gt; private and public key.&lt;/font&gt;&lt;/font&gt;&lt;/div&gt;&lt;div style=&quot;font-size: 10px;&quot;&gt;&lt;font style=&quot;font-size: 10px;&quot;&gt;&lt;font style=&quot;font-size: 10px;&quot;&gt;3) &lt;/font&gt;&lt;/font&gt;&lt;font style=&quot;font-size: 10px; background-color: rgb(193, 238, 213);&quot;&gt;&lt;font style=&quot;font-size: 10px;&quot;&gt;generate AES IV (Initialization Vector)&lt;/font&gt;&lt;/font&gt;&lt;/div&gt;&lt;div style=&quot;font-size: 10px;&quot;&gt;4) &lt;font style=&quot;font-size: 10px;&quot;&gt;&lt;font style=&quot;font-size: 10px;&quot;&gt;generate an Access Token&amp;nbsp;&lt;/font&gt;&lt;/font&gt;&lt;/div&gt;&lt;div style=&quot;font-size: 10px;&quot;&gt;&lt;font style=&quot;font-size: 10px;&quot;&gt;&lt;font style=&quot;font-size: 10px;&quot;&gt;&amp;nbsp;using AES secure Key as SignCredential&lt;br&gt;&lt;/font&gt;&lt;/font&gt;&lt;/div&gt;&lt;div&gt;5) return Access Token,&amp;nbsp;&lt;/div&gt;&lt;div&gt;&amp;nbsp;&amp;nbsp;&amp;nbsp; RSA public key and AES IV&lt;br&gt;&lt;/div&gt;" style="text;html=1;align=left;verticalAlign=middle;resizable=0;points=[];autosize=1;fontSize=10;fillColor=#f5f5f5;fontColor=#333333;strokeColor=#666666;" parent="1" vertex="1">
          <mxGeometry x="592" y="330" width="220" height="100" as="geometry" />
        </mxCell>
        <mxCell id="7PrB7ct33ou-kt_ilz-a-53" value="" style="html=1;verticalAlign=bottom;endArrow=open;dashed=1;endSize=8;elbow=horizontal;rounded=0;fontSize=10;" parent="1" edge="1">
          <mxGeometry relative="1" as="geometry">
            <mxPoint x="254" y="440" as="targetPoint" />
            <mxPoint x="560" y="440" as="sourcePoint" />
          </mxGeometry>
        </mxCell>
        <mxCell id="7PrB7ct33ou-kt_ilz-a-49" value="" style="edgeStyle=orthogonalEdgeStyle;rounded=0;orthogonalLoop=1;jettySize=auto;html=1;elbow=vertical;curved=1;fontSize=10;" parent="1" edge="1">
          <mxGeometry relative="1" as="geometry">
            <mxPoint x="590" y="331" as="sourcePoint" />
            <mxPoint x="592" y="441" as="targetPoint" />
            <Array as="points">
              <mxPoint x="811" y="331" />
              <mxPoint x="811" y="441" />
            </Array>
          </mxGeometry>
        </mxCell>
        <mxCell id="7PrB7ct33ou-kt_ilz-a-56" value="" style="endArrow=none;dashed=1;html=1;rounded=0;dashPattern=12 12;fillColor=#e1d5e7;strokeColor=#c0c0c0;strokeWidth=3;" parent="1" edge="1">
          <mxGeometry width="50" height="50" relative="1" as="geometry">
            <mxPoint x="14" y="265" as="sourcePoint" />
            <mxPoint x="814" y="265" as="targetPoint" />
          </mxGeometry>
        </mxCell>
        <mxCell id="es4zuGhlTcDtU3RGPdiZ-50" value="" style="rounded=0;orthogonalLoop=1;jettySize=auto;html=1;strokeWidth=2;fillColor=#d5e8d4;strokeColor=#82b366;dashed=1;exitX=0.5;exitY=1;exitDx=0;exitDy=0;edgeStyle=orthogonalEdgeStyle;" parent="1" source="7PrB7ct33ou-kt_ilz-a-62" edge="1">
          <mxGeometry relative="1" as="geometry">
            <mxPoint x="30" y="790" as="targetPoint" />
            <Array as="points">
              <mxPoint x="93" y="670" />
              <mxPoint x="31" y="670" />
            </Array>
          </mxGeometry>
        </mxCell>
        <mxCell id="7PrB7ct33ou-kt_ilz-a-62" value="AES IV" style="rounded=0;whiteSpace=wrap;html=1;fillColor=#d5e8d4;strokeColor=#82b366;fontSize=10;" parent="1" vertex="1">
          <mxGeometry x="47.5" y="557.5" width="90" height="20" as="geometry" />
        </mxCell>
        <mxCell id="7PrB7ct33ou-kt_ilz-a-66" value="" style="endArrow=none;dashed=1;html=1;rounded=0;dashPattern=12 12;fillColor=#e1d5e7;strokeColor=#c0c0c0;strokeWidth=3;" parent="1" edge="1">
          <mxGeometry width="50" height="50" relative="1" as="geometry">
            <mxPoint x="14" y="655" as="sourcePoint" />
            <mxPoint x="814" y="655" as="targetPoint" />
          </mxGeometry>
        </mxCell>
        <mxCell id="7PrB7ct33ou-kt_ilz-a-67" value="1)" style="text;html=1;align=center;verticalAlign=middle;resizable=0;points=[];autosize=1;strokeColor=none;fillColor=none;fontStyle=1" parent="1" vertex="1">
          <mxGeometry x="50" y="65" width="30" height="30" as="geometry" />
        </mxCell>
        <mxCell id="7PrB7ct33ou-kt_ilz-a-68" value="&lt;b&gt;2)&lt;/b&gt;" style="text;html=1;align=center;verticalAlign=middle;resizable=0;points=[];autosize=1;strokeColor=none;fillColor=none;" parent="1" vertex="1">
          <mxGeometry x="55" y="300" width="30" height="30" as="geometry" />
        </mxCell>
        <mxCell id="7PrB7ct33ou-kt_ilz-a-70" value="" style="html=1;points=[[0,0,0,0,5],[0,1,0,0,-5],[1,0,0,0,5],[1,1,0,0,-5]];perimeter=orthogonalPerimeter;outlineConnect=0;targetShapes=umlLifeline;portConstraint=eastwest;newEdgeStyle={&quot;curved&quot;:0,&quot;rounded&quot;:0};fontSize=10;" parent="1" vertex="1">
          <mxGeometry x="235" y="685" width="10" height="210" as="geometry" />
        </mxCell>
        <mxCell id="7PrB7ct33ou-kt_ilz-a-71" value="" style="html=1;points=[[0,0,0,0,5],[0,1,0,0,-5],[1,0,0,0,5],[1,1,0,0,-5]];perimeter=orthogonalPerimeter;outlineConnect=0;targetShapes=umlLifeline;portConstraint=eastwest;newEdgeStyle={&quot;curved&quot;:0,&quot;rounded&quot;:0};fontSize=10;" parent="1" vertex="1">
          <mxGeometry x="575" y="685" width="10" height="210" as="geometry" />
        </mxCell>
        <mxCell id="7PrB7ct33ou-kt_ilz-a-73" value="" style="endArrow=classic;html=1;rounded=0;dashed=1;dashPattern=12 12;fontSize=10;" parent="1" edge="1">
          <mxGeometry width="50" height="50" relative="1" as="geometry">
            <mxPoint x="90" y="715" as="sourcePoint" />
            <mxPoint x="230" y="715" as="targetPoint" />
          </mxGeometry>
        </mxCell>
        <mxCell id="7PrB7ct33ou-kt_ilz-a-76" value="" style="endArrow=classic;html=1;rounded=0;dashed=1;dashPattern=12 12;edgeStyle=elbowEdgeStyle;fontSize=10;" parent="1" edge="1">
          <mxGeometry width="50" height="50" relative="1" as="geometry">
            <mxPoint x="254" y="715" as="sourcePoint" />
            <mxPoint x="574" y="715" as="targetPoint" />
          </mxGeometry>
        </mxCell>
        <mxCell id="7PrB7ct33ou-kt_ilz-a-77" value="url: ...\api\getUserContractList?accesstoken" style="text;html=1;align=center;verticalAlign=middle;resizable=0;points=[];autosize=1;strokeColor=none;fillColor=none;fontStyle=1;fontSize=10;" parent="1" vertex="1">
          <mxGeometry x="264" y="685" width="220" height="30" as="geometry" />
        </mxCell>
        <mxCell id="7PrB7ct33ou-kt_ilz-a-78" value="&lt;div&gt;1) get StaffNo from Access Token&lt;/div&gt;&lt;div&gt;2) retrieve contract list from database&lt;/div&gt;&lt;div&gt;3) &lt;span style=&quot;background-color: rgb(150, 216, 152);&quot;&gt;encrypt the resultset&amp;nbsp;&lt;/span&gt;&lt;/div&gt;&lt;div&gt;&lt;span style=&quot;background-color: rgb(150, 216, 152);&quot;&gt;&amp;nbsp;&amp;nbsp;&amp;nbsp;&amp;nbsp;&amp;nbsp; using AES (Project SecureKey + IV)&lt;/span&gt;&lt;br&gt;&lt;/div&gt;&lt;div&gt;3) and return encrypted results&lt;br&gt;&lt;/div&gt;" style="text;html=1;align=left;verticalAlign=middle;resizable=0;points=[];autosize=1;strokeColor=#666666;fillColor=#f5f5f5;fontSize=10;fontColor=#333333;" parent="1" vertex="1">
          <mxGeometry x="600" y="755" width="210" height="70" as="geometry" />
        </mxCell>
        <mxCell id="7PrB7ct33ou-kt_ilz-a-79" value="" style="html=1;verticalAlign=bottom;endArrow=open;dashed=1;endSize=8;elbow=horizontal;rounded=0;fontSize=10;" parent="1" edge="1">
          <mxGeometry relative="1" as="geometry">
            <mxPoint x="255.25" y="760" as="targetPoint" />
            <mxPoint x="571.75" y="760" as="sourcePoint" />
          </mxGeometry>
        </mxCell>
        <mxCell id="7PrB7ct33ou-kt_ilz-a-85" value="&lt;b&gt;3)&lt;/b&gt;" style="text;html=1;align=center;verticalAlign=middle;resizable=0;points=[];autosize=1;strokeColor=none;fillColor=none;" parent="1" vertex="1">
          <mxGeometry x="55" y="685" width="30" height="30" as="geometry" />
        </mxCell>
        <mxCell id="7PrB7ct33ou-kt_ilz-a-86" value="get User Contract List" style="text;html=1;align=center;verticalAlign=middle;resizable=0;points=[];autosize=1;strokeColor=none;fillColor=none;fontSize=10;fontStyle=1;fontColor=#3333FF;" parent="1" vertex="1">
          <mxGeometry x="90" y="685" width="120" height="30" as="geometry" />
        </mxCell>
        <mxCell id="7PrB7ct33ou-kt_ilz-a-87" value="&lt;div&gt;RSA Public Key&lt;/div&gt;&lt;div&gt;RSA Private Key&lt;/div&gt;&lt;div&gt;AES IV&lt;/div&gt;&lt;div&gt;Access Token with Credential&lt;br&gt;&lt;/div&gt;" style="rounded=0;whiteSpace=wrap;html=1;fillColor=#ffe6cc;strokeColor=#d79b00;fontSize=10;fontColor=#FF3333;" parent="1" vertex="1">
          <mxGeometry x="600" y="485" width="170" height="60" as="geometry" />
        </mxCell>
        <mxCell id="es4zuGhlTcDtU3RGPdiZ-3" value="" style="edgeStyle=orthogonalEdgeStyle;rounded=0;orthogonalLoop=1;jettySize=auto;html=1;elbow=vertical;curved=1;fontSize=10;" parent="1" edge="1">
          <mxGeometry relative="1" as="geometry">
            <mxPoint x="589" y="715" as="sourcePoint" />
            <mxPoint x="590" y="760" as="targetPoint" />
            <Array as="points">
              <mxPoint x="810" y="715" />
              <mxPoint x="810" y="760" />
              <mxPoint x="591" y="760" />
            </Array>
          </mxGeometry>
        </mxCell>
        <mxCell id="es4zuGhlTcDtU3RGPdiZ-4" value="e.g. staff No: &lt;br style=&quot;font-size: 10px;&quot;&gt;654321" style="rounded=0;whiteSpace=wrap;html=1;fillColor=#fff2cc;strokeColor=#d6b656;fontSize=10;" parent="1" vertex="1">
          <mxGeometry x="109.25" y="334" width="85.75" height="30" as="geometry" />
        </mxCell>
        <mxCell id="es4zuGhlTcDtU3RGPdiZ-8" value="" style="rounded=0;orthogonalLoop=1;jettySize=auto;html=1;elbow=vertical;fontSize=10;" parent="1" edge="1">
          <mxGeometry relative="1" as="geometry">
            <mxPoint x="231" y="440" as="sourcePoint" />
            <mxPoint x="202" y="440.5" as="targetPoint" />
          </mxGeometry>
        </mxCell>
        <mxCell id="es4zuGhlTcDtU3RGPdiZ-12" value="" style="edgeStyle=orthogonalEdgeStyle;rounded=0;orthogonalLoop=1;jettySize=auto;html=1;dashed=1;exitX=0.5;exitY=1;exitDx=0;exitDy=0;" parent="1" source="es4zuGhlTcDtU3RGPdiZ-39" edge="1">
          <mxGeometry relative="1" as="geometry">
            <mxPoint x="120" y="485" as="sourcePoint" />
            <mxPoint x="94" y="480" as="targetPoint" />
          </mxGeometry>
        </mxCell>
        <mxCell id="es4zuGhlTcDtU3RGPdiZ-11" value="Access Token with Credential" style="rounded=0;whiteSpace=wrap;html=1;fillColor=#ffe6cc;strokeColor=#d79b00;fontSize=10;fontColor=#FF3333;" parent="1" vertex="1">
          <mxGeometry x="47.5" y="520" width="152.5" height="20" as="geometry" />
        </mxCell>
        <mxCell id="es4zuGhlTcDtU3RGPdiZ-21" value="&lt;div&gt;staffno=654321&lt;/div&gt;" style="rounded=0;whiteSpace=wrap;html=1;fillColor=#fff2cc;strokeColor=#d6b656;fontSize=10;" parent="1" vertex="1">
          <mxGeometry x="622" y="560" width="100" height="30" as="geometry" />
        </mxCell>
        <mxCell id="es4zuGhlTcDtU3RGPdiZ-30" value="&lt;div&gt;staffno=654321&lt;/div&gt;" style="rounded=0;whiteSpace=wrap;html=1;fillColor=#fff2cc;strokeColor=#d6b656;fontSize=10;" parent="1" vertex="1">
          <mxGeometry x="140" y="590" width="77" height="25" as="geometry" />
        </mxCell>
        <mxCell id="es4zuGhlTcDtU3RGPdiZ-39" value="&lt;div&gt;received an Access Token&lt;/div&gt;&lt;div&gt;and RSA Public key&amp;nbsp;&lt;/div&gt;&lt;div&gt;and AES IV&lt;br&gt;&lt;/div&gt;" style="rounded=0;whiteSpace=wrap;html=1;fillColor=#f5f5f5;strokeColor=#666666;fontSize=10;fontColor=#333333;" parent="1" vertex="1">
          <mxGeometry x="27.5" y="400" width="172.5" height="45" as="geometry" />
        </mxCell>
        <mxCell id="es4zuGhlTcDtU3RGPdiZ-43" value="&lt;div&gt;return Encrypted Results&lt;/div&gt;" style="rounded=0;whiteSpace=wrap;html=1;fillColor=#ffe6cc;strokeColor=#d79b00;fontSize=10;" parent="1" vertex="1">
          <mxGeometry x="290" y="733" width="217" height="22" as="geometry" />
        </mxCell>
        <mxCell id="es4zuGhlTcDtU3RGPdiZ-46" value="" style="rounded=0;orthogonalLoop=1;jettySize=auto;html=1;dashed=1;entryX=0.5;entryY=0;entryDx=0;entryDy=0;" parent="1" source="es4zuGhlTcDtU3RGPdiZ-44" target="es4zuGhlTcDtU3RGPdiZ-48" edge="1">
          <mxGeometry relative="1" as="geometry">
            <mxPoint x="122" y="885" as="targetPoint" />
          </mxGeometry>
        </mxCell>
        <mxCell id="es4zuGhlTcDtU3RGPdiZ-44" value="&lt;div&gt;received encrypted results&lt;/div&gt;" style="rounded=0;whiteSpace=wrap;html=1;fillColor=#f5f5f5;strokeColor=#666666;fontSize=10;fontColor=#333333;" parent="1" vertex="1">
          <mxGeometry x="50" y="741" width="152" height="25" as="geometry" />
        </mxCell>
        <mxCell id="es4zuGhlTcDtU3RGPdiZ-45" value="" style="rounded=0;orthogonalLoop=1;jettySize=auto;html=1;elbow=vertical;fontSize=10;" parent="1" edge="1">
          <mxGeometry relative="1" as="geometry">
            <mxPoint x="229" y="760" as="sourcePoint" />
            <mxPoint x="200" y="760.5" as="targetPoint" />
          </mxGeometry>
        </mxCell>
        <mxCell id="es4zuGhlTcDtU3RGPdiZ-85" value="" style="edgeStyle=orthogonalEdgeStyle;rounded=0;orthogonalLoop=1;jettySize=auto;html=1;exitX=0.5;exitY=1;exitDx=0;exitDy=0;entryX=0.5;entryY=0;entryDx=0;entryDy=0;dashed=1;" parent="1" source="es4zuGhlTcDtU3RGPdiZ-48" target="es4zuGhlTcDtU3RGPdiZ-84" edge="1">
          <mxGeometry relative="1" as="geometry" />
        </mxCell>
        <mxCell id="es4zuGhlTcDtU3RGPdiZ-48" value="&lt;div&gt;AES decryption&lt;/div&gt;&lt;div&gt;(Project SecureKey + AES IV) &lt;/div&gt;" style="rounded=0;whiteSpace=wrap;html=1;fontSize=10;strokeColor=#82b366;align=center;fillColor=#d5e8d4;" parent="1" vertex="1">
          <mxGeometry x="50" y="788" width="150" height="26" as="geometry" />
        </mxCell>
        <mxCell id="es4zuGhlTcDtU3RGPdiZ-66" value="" style="html=1;points=[[0,0,0,0,5],[0,1,0,0,-5],[1,0,0,0,5],[1,1,0,0,-5]];perimeter=orthogonalPerimeter;outlineConnect=0;targetShapes=umlLifeline;portConstraint=eastwest;newEdgeStyle={&quot;curved&quot;:0,&quot;rounded&quot;:0};fontSize=10;" parent="1" vertex="1">
          <mxGeometry x="235" y="915" width="10" height="220" as="geometry" />
        </mxCell>
        <mxCell id="es4zuGhlTcDtU3RGPdiZ-67" value="" style="html=1;points=[[0,0,0,0,5],[0,1,0,0,-5],[1,0,0,0,5],[1,1,0,0,-5]];perimeter=orthogonalPerimeter;outlineConnect=0;targetShapes=umlLifeline;portConstraint=eastwest;newEdgeStyle={&quot;curved&quot;:0,&quot;rounded&quot;:0};fontSize=10;" parent="1" vertex="1">
          <mxGeometry x="575" y="915" width="10" height="220" as="geometry" />
        </mxCell>
        <mxCell id="es4zuGhlTcDtU3RGPdiZ-68" value="" style="endArrow=classic;html=1;rounded=0;dashed=1;dashPattern=12 12;fontSize=10;" parent="1" edge="1">
          <mxGeometry width="50" height="50" relative="1" as="geometry">
            <mxPoint x="82.13" y="945" as="sourcePoint" />
            <mxPoint x="222.13" y="945" as="targetPoint" />
          </mxGeometry>
        </mxCell>
        <mxCell id="es4zuGhlTcDtU3RGPdiZ-69" value="" style="endArrow=classic;html=1;rounded=0;dashed=1;dashPattern=12 12;edgeStyle=elbowEdgeStyle;fontSize=10;" parent="1" edge="1">
          <mxGeometry width="50" height="50" relative="1" as="geometry">
            <mxPoint x="254" y="945" as="sourcePoint" />
            <mxPoint x="574" y="945" as="targetPoint" />
          </mxGeometry>
        </mxCell>
        <mxCell id="es4zuGhlTcDtU3RGPdiZ-70" value="url: ...\api\getSalSlip?accesstoken&amp;amp;slipdate=202403" style="text;html=1;align=center;verticalAlign=middle;resizable=0;points=[];autosize=1;strokeColor=none;fillColor=none;fontStyle=1;fontSize=10;" parent="1" vertex="1">
          <mxGeometry x="264" y="915" width="270" height="30" as="geometry" />
        </mxCell>
        <mxCell id="es4zuGhlTcDtU3RGPdiZ-71" value="&lt;div&gt;1) get StaffNo from Access Token&lt;/div&gt;&lt;div&gt;2) get slipdate from querystring.&lt;/div&gt;&lt;div&gt;3) retrieve salary slipi from database&lt;/div&gt;&lt;div&gt;4) &lt;span style=&quot;background-color: rgb(150, 216, 152);&quot;&gt;encrypt the resultset&amp;nbsp;&lt;/span&gt;&lt;/div&gt;&lt;div&gt;&lt;span style=&quot;background-color: rgb(150, 216, 152);&quot;&gt;&amp;nbsp;&amp;nbsp;&amp;nbsp;&amp;nbsp;&amp;nbsp; using AES (Project SecureKey + IV)&lt;/span&gt;&lt;br&gt;&lt;/div&gt;&lt;div&gt;5) and return encrypted results&lt;br&gt;&lt;/div&gt;" style="text;html=1;align=left;verticalAlign=middle;resizable=0;points=[];autosize=1;strokeColor=#666666;fillColor=#f5f5f5;fontSize=10;fontColor=#333333;" parent="1" vertex="1">
          <mxGeometry x="600" y="985" width="210" height="90" as="geometry" />
        </mxCell>
        <mxCell id="es4zuGhlTcDtU3RGPdiZ-72" value="" style="html=1;verticalAlign=bottom;endArrow=open;dashed=1;endSize=8;elbow=horizontal;rounded=0;fontSize=10;" parent="1" edge="1">
          <mxGeometry relative="1" as="geometry">
            <mxPoint x="245" y="990" as="targetPoint" />
            <mxPoint x="565" y="990" as="sourcePoint" />
          </mxGeometry>
        </mxCell>
        <mxCell id="es4zuGhlTcDtU3RGPdiZ-73" value="&lt;b&gt;4)&lt;/b&gt;" style="text;html=1;align=center;verticalAlign=middle;resizable=0;points=[];autosize=1;strokeColor=none;fillColor=none;" parent="1" vertex="1">
          <mxGeometry x="50" y="920" width="30" height="30" as="geometry" />
        </mxCell>
        <mxCell id="es4zuGhlTcDtU3RGPdiZ-74" value="get a Salary Slip" style="text;html=1;align=center;verticalAlign=middle;resizable=0;points=[];autosize=1;strokeColor=none;fillColor=none;fontSize=10;fontStyle=1;fontColor=#3333FF;" parent="1" vertex="1">
          <mxGeometry x="90" y="920" width="100" height="30" as="geometry" />
        </mxCell>
        <mxCell id="es4zuGhlTcDtU3RGPdiZ-75" value="" style="edgeStyle=orthogonalEdgeStyle;rounded=0;orthogonalLoop=1;jettySize=auto;html=1;elbow=vertical;curved=1;fontSize=10;" parent="1" edge="1">
          <mxGeometry relative="1" as="geometry">
            <mxPoint x="590" y="945" as="sourcePoint" />
            <mxPoint x="600" y="990" as="targetPoint" />
            <Array as="points">
              <mxPoint x="811" y="945" />
              <mxPoint x="811" y="990" />
            </Array>
          </mxGeometry>
        </mxCell>
        <mxCell id="es4zuGhlTcDtU3RGPdiZ-76" value="&lt;div&gt;return Encrypted Results&lt;/div&gt;" style="rounded=0;whiteSpace=wrap;html=1;fillColor=#ffe6cc;strokeColor=#d79b00;fontSize=10;" parent="1" vertex="1">
          <mxGeometry x="305" y="967.5" width="217" height="17.5" as="geometry" />
        </mxCell>
        <mxCell id="es4zuGhlTcDtU3RGPdiZ-79" value="" style="rounded=0;orthogonalLoop=1;jettySize=auto;html=1;elbow=vertical;fontSize=10;" parent="1" edge="1">
          <mxGeometry relative="1" as="geometry">
            <mxPoint x="231" y="990" as="sourcePoint" />
            <mxPoint x="202" y="990.5" as="targetPoint" />
          </mxGeometry>
        </mxCell>
        <mxCell id="es4zuGhlTcDtU3RGPdiZ-82" value="" style="endArrow=classic;html=1;rounded=0;edgeStyle=elbowEdgeStyle;dashed=1;fillColor=#d5e8d4;strokeColor=#82b366;strokeWidth=2;fontSize=10;entryX=0;entryY=0.75;entryDx=0;entryDy=0;" parent="1" edge="1">
          <mxGeometry width="50" height="50" relative="1" as="geometry">
            <mxPoint x="12" y="800" as="sourcePoint" />
            <mxPoint x="50" y="1040" as="targetPoint" />
            <Array as="points">
              <mxPoint x="12" y="970" />
            </Array>
          </mxGeometry>
        </mxCell>
        <mxCell id="es4zuGhlTcDtU3RGPdiZ-84" value="Results" style="rounded=0;whiteSpace=wrap;html=1;fillColor=#f5f5f5;strokeColor=#666666;fontSize=10;fontColor=#333333;" parent="1" vertex="1">
          <mxGeometry x="50" y="840" width="150" height="20" as="geometry" />
        </mxCell>
        <mxCell id="es4zuGhlTcDtU3RGPdiZ-88" value="" style="rounded=0;orthogonalLoop=1;jettySize=auto;html=1;dashed=1;entryX=0.5;entryY=0;entryDx=0;entryDy=0;exitX=0.5;exitY=1;exitDx=0;exitDy=0;" parent="1" source="es4zuGhlTcDtU3RGPdiZ-94" target="es4zuGhlTcDtU3RGPdiZ-92" edge="1">
          <mxGeometry relative="1" as="geometry">
            <mxPoint x="123" y="1022.5" as="targetPoint" />
            <mxPoint x="124.27536231884051" y="1000.5" as="sourcePoint" />
          </mxGeometry>
        </mxCell>
        <mxCell id="es4zuGhlTcDtU3RGPdiZ-90" value="" style="edgeStyle=orthogonalEdgeStyle;rounded=0;orthogonalLoop=1;jettySize=auto;html=1;exitX=0.5;exitY=1;exitDx=0;exitDy=0;entryX=0.5;entryY=0;entryDx=0;entryDy=0;dashed=1;" parent="1" target="es4zuGhlTcDtU3RGPdiZ-91" edge="1">
          <mxGeometry relative="1" as="geometry">
            <mxPoint x="123" y="1048.5" as="sourcePoint" />
          </mxGeometry>
        </mxCell>
        <mxCell id="es4zuGhlTcDtU3RGPdiZ-91" value="Results" style="rounded=0;whiteSpace=wrap;html=1;fillColor=#f5f5f5;strokeColor=#666666;fontSize=10;fontColor=#333333;" parent="1" vertex="1">
          <mxGeometry x="50" y="1074.5" width="150" height="20" as="geometry" />
        </mxCell>
        <mxCell id="es4zuGhlTcDtU3RGPdiZ-92" value="&lt;div&gt;AES decryption&lt;/div&gt;&lt;div&gt;(Project SecureKey + AES IV) &lt;/div&gt;" style="rounded=0;whiteSpace=wrap;html=1;fontSize=10;strokeColor=#82b366;align=center;fillColor=#d5e8d4;" parent="1" vertex="1">
          <mxGeometry x="50" y="1022" width="150" height="26" as="geometry" />
        </mxCell>
        <mxCell id="es4zuGhlTcDtU3RGPdiZ-94" value="&lt;div&gt;received encrypted results&lt;br&gt;&lt;/div&gt;" style="rounded=0;whiteSpace=wrap;html=1;fillColor=#f5f5f5;strokeColor=#666666;fontSize=10;fontColor=#333333;" parent="1" vertex="1">
          <mxGeometry x="50" y="970" width="150" height="25" as="geometry" />
        </mxCell>
        <mxCell id="es4zuGhlTcDtU3RGPdiZ-95" value="" style="edgeStyle=elbowEdgeStyle;rounded=0;orthogonalLoop=1;jettySize=auto;html=1;strokeWidth=2;fillColor=#d5e8d4;strokeColor=#82b366;dashed=1;" parent="1" edge="1">
          <mxGeometry relative="1" as="geometry">
            <mxPoint x="30" y="820" as="sourcePoint" />
            <mxPoint x="30" y="1030" as="targetPoint" />
          </mxGeometry>
        </mxCell>
        <mxCell id="es4zuGhlTcDtU3RGPdiZ-96" value="" style="endArrow=none;dashed=1;html=1;rounded=0;dashPattern=12 12;fillColor=#e1d5e7;strokeColor=#c0c0c0;strokeWidth=3;" parent="1" edge="1">
          <mxGeometry width="50" height="50" relative="1" as="geometry">
            <mxPoint x="10" y="905" as="sourcePoint" />
            <mxPoint x="810" y="905" as="targetPoint" />
          </mxGeometry>
        </mxCell>
        <mxCell id="ExZCcWrFuK6uDff_lhcK-1" value="RSA Public Key" style="rounded=0;whiteSpace=wrap;html=1;fillColor=#ffe6cc;strokeColor=#d79b00;fontSize=10;fontColor=#FF3333;" parent="1" vertex="1">
          <mxGeometry x="48" y="485" width="92" height="20" as="geometry" />
        </mxCell>
        <mxCell id="ATCBDJYlgSvFNA7paExq-2" value="" style="endArrow=classic;html=1;rounded=0;edgeStyle=elbowEdgeStyle;dashed=1;fillColor=#d5e8d4;strokeColor=#82b366;strokeWidth=2;fontSize=10;" parent="1" edge="1">
          <mxGeometry width="50" height="50" relative="1" as="geometry">
            <mxPoint x="12" y="430" as="sourcePoint" />
            <mxPoint x="40" y="800" as="targetPoint" />
            <Array as="points">
              <mxPoint x="12" y="800" />
            </Array>
          </mxGeometry>
        </mxCell>
        <mxCell id="ATCBDJYlgSvFNA7paExq-3" value="" style="edgeStyle=orthogonalEdgeStyle;rounded=0;orthogonalLoop=1;jettySize=auto;html=1;dashed=1;exitX=0.803;exitY=1.25;exitDx=0;exitDy=0;entryX=0.5;entryY=0;entryDx=0;entryDy=0;exitPerimeter=0;" parent="1" source="es4zuGhlTcDtU3RGPdiZ-11" target="es4zuGhlTcDtU3RGPdiZ-30" edge="1">
          <mxGeometry relative="1" as="geometry">
            <mxPoint x="181" y="455" as="sourcePoint" />
            <mxPoint x="161" y="495" as="targetPoint" />
          </mxGeometry>
        </mxCell>
      </root>
    </mxGraphModel>
  </diagram>
</mxfile>
